<svg width="48" height="42" viewBox="0 0 48 42" fill="none" xmlns="http://www.w3.org/2000/svg">
<mask id="mask0_1_33" style="mask-type:alpha" maskUnits="userSpaceOnUse" x="0" y="0" width="48" height="42">
<rect width="48" height="42" rx="10" fill="rgb(14 165 233)"/>
</mask>
<g mask="url(#mask0_1_33)">
<rect width="48" height="42" rx="10" fill="rgb(14 165 233)"/>
<path d="M12.6509 22.0567L12.6505 22.0561C10.985 19.7507 10.1656 17.2558 10.2639 14.9135C10.3619 12.5778 11.3681 10.4786 13.1575 8.89139C14.9521 7.29967 17.4626 6.28855 20.368 6.02562C23.2726 5.76275 26.4123 6.26298 29.3565 7.46698C32.3009 8.67095 34.8916 10.5141 36.7799 12.737C38.6687 14.9605 39.7515 17.4411 39.9166 19.8344C40.0812 22.2208 39.3281 24.4236 37.7613 26.1588C36.1902 27.8988 33.8572 29.1046 31.0534 29.5823L31.0527 29.5824C30.1751 29.7333 29.3922 30.0608 28.9103 30.6322L27.8582 31.8765L13.3237 25.9323L13.4437 24.3069C13.4437 24.3067 13.4437 24.3066 13.4437 24.3064C13.5002 23.5612 13.1711 22.7791 12.6509 22.0567ZM12.9877 30.4129L12.9877 30.4128L13.0912 29.0341L25.8487 34.2515L24.9556 35.3069L24.9553 35.3073C24.4211 35.9399 23.5705 36.387 22.5078 36.5375C21.4455 36.6878 20.257 36.528 19.1397 36.0711C19.1397 36.0711 19.1397 36.0711 19.1397 36.0711L16.5984 35.0318C15.4818 34.5745 14.5227 33.8558 13.8708 33.0044C13.2187 32.1527 12.9255 31.2381 12.9877 30.4129Z" fill="#F7FBFF" stroke="#0D89C9"/>
</g>
</svg>
